<svg version="1.1" id="Layer_1" xmlns="http://www.w3.org/2000/svg" xmlns:xlink="http://www.w3.org/1999/xlink" x="0px" y="0px"
	 width="100%" viewBox="0 0 127 114" enable-background="new 0 0 127 114" xml:space="preserve">
<path fill="#FEFFFE" opacity="1.000000" stroke="none" 
	d="
M76.000000,115.000000 
	C50.666668,115.000000 25.833334,115.000000 1.000000,115.000000 
	C1.000000,77.000000 1.000000,39.000000 1.000000,1.000000 
	C43.333332,1.000000 85.666664,1.000000 128.000000,1.000000 
	C128.000000,39.000000 128.000000,77.000000 128.000000,115.000000 
	C110.833336,115.000000 93.666664,115.000000 76.000000,115.000000 
M61.955097,99.541527 
	C64.284370,101.358437 66.613647,103.175346 68.813828,104.891556 
	C80.661339,97.237343 96.283409,81.709702 102.317657,69.869637 
	C105.557869,63.511883 108.161987,56.259598 108.725243,49.224579 
	C109.963577,33.757847 99.275970,18.565653 84.198708,12.004122 
	C69.896095,5.779716 52.270397,9.300101 40.793301,20.673494 
	C29.269720,32.092953 25.928259,48.562859 32.304028,63.459877 
	C38.573341,78.108170 49.730274,88.826653 61.955097,99.541527 
z"/>
<path fill="#048162" opacity="1.000000" stroke="none" 
	d="
M61.679787,99.317543 
	C49.730274,88.826653 38.573341,78.108170 32.304028,63.459877 
	C25.928259,48.562859 29.269720,32.092953 40.793301,20.673494 
	C52.270397,9.300101 69.896095,5.779716 84.198708,12.004122 
	C99.275970,18.565653 109.963577,33.757847 108.725243,49.224579 
	C108.161987,56.259598 105.557869,63.511883 102.317657,69.869637 
	C96.283409,81.709702 80.661339,97.237343 68.813828,104.891556 
	C66.613647,103.175346 64.284370,101.358437 61.679787,99.317543 
M47.411850,36.950123 
	C47.008102,37.620861 46.331886,38.257080 46.241875,38.967571 
	C45.072769,48.195560 44.079395,57.446575 42.835999,66.664040 
	C42.314423,70.530540 43.937771,71.669815 47.511917,71.648918 
	C61.810764,71.565254 76.111259,71.527367 90.409180,71.670212 
	C94.489769,71.710976 95.671341,70.085594 95.121506,66.238945 
	C94.016998,58.511761 93.101791,50.756878 92.163147,43.006805 
	C91.210297,35.139523 91.239159,35.136028 83.946495,33.846607 
	C81.081413,22.938818 77.434326,18.750181 69.813026,18.652792 
	C66.970398,18.616468 63.184582,19.056601 61.453129,20.848755 
	C57.978001,24.445719 55.620323,29.122286 52.359844,34.016068 
	C51.596172,34.536480 49.907745,35.687088 47.411850,36.950123 
z"/>
<path fill="#E6F3F0" opacity="1.000000" stroke="none" 
	d="
M47.815582,36.893906 
	C49.907745,35.687088 51.596172,34.536480 52.359844,34.016068 
	C55.620323,29.122286 57.978001,24.445719 61.453129,20.848755 
	C63.184582,19.056601 66.970398,18.616468 69.813026,18.652792 
	C77.434326,18.750181 81.081413,22.938818 83.946495,33.846607 
	C91.239159,35.136028 91.210297,35.139523 92.163147,43.006805 
	C93.101791,50.756878 94.016998,58.511761 95.121506,66.238945 
	C95.671341,70.085594 94.489769,71.710976 90.409180,71.670212 
	C76.111259,71.527367 61.810764,71.565254 47.511917,71.648918 
	C43.937771,71.669815 42.314423,70.530540 42.835999,66.664040 
	C44.079395,57.446575 45.072769,48.195560 46.241875,38.967571 
	C46.331886,38.257080 47.008102,37.620861 47.815582,36.893906 
M89.558678,61.070091 
	C88.639748,54.021252 87.720818,46.972416 86.809479,39.981865 
	C74.670509,39.981865 62.971642,39.981865 51.128075,39.981865 
	C50.023346,48.830719 48.961872,57.333096 47.866219,66.109222 
	C62.178410,66.109222 75.896004,66.109222 89.905190,66.109222 
	C89.834373,64.542313 89.776039,63.251606 89.558678,61.070091 
M60.069649,30.274704 
	C60.435665,31.620287 60.748489,34.117538 61.175739,34.137272 
	C66.831009,34.398464 72.502365,34.311455 78.191399,34.311455 
	C78.371796,28.773506 76.199234,25.564535 71.769890,24.138420 
	C67.103767,22.636074 63.487518,24.430008 60.069649,30.274704 
z"/>
<path fill="#068260" opacity="1.000000" stroke="none" 
	d="
M89.638191,61.515495 
	C89.776039,63.251606 89.834373,64.542313 89.905190,66.109222 
	C75.896004,66.109222 62.178410,66.109222 47.866219,66.109222 
	C48.961872,57.333096 50.023346,48.830719 51.128075,39.981865 
	C62.971642,39.981865 74.670509,39.981865 86.809479,39.981865 
	C87.720818,46.972416 88.639748,54.021252 89.638191,61.515495 
M59.852142,59.413437 
	C63.001667,63.652531 67.283417,65.037872 72.211479,63.662636 
	C76.555489,62.450394 79.263100,59.339863 79.984383,54.796982 
	C80.766525,49.870766 78.484779,45.234585 74.154488,43.121319 
	C69.695305,40.945148 65.394226,41.411140 61.592480,44.659859 
	C57.538872,48.123798 56.889969,52.736752 59.852142,59.413437 
z"/>
<path fill="#068263" opacity="1.000000" stroke="none" 
	d="
M60.170105,29.857428 
	C63.487518,24.430008 67.103767,22.636074 71.769890,24.138420 
	C76.199234,25.564535 78.371796,28.773506 78.191399,34.311455 
	C72.502365,34.311455 66.831009,34.398464 61.175739,34.137272 
	C60.748489,34.117538 60.435665,31.620287 60.170105,29.857428 
z"/>
<path fill="#EAED21" opacity="1.000000" stroke="none" 
	d="
M59.630173,59.089554 
	C56.889969,52.736752 57.538872,48.123798 61.592480,44.659859 
	C65.394226,41.411140 69.695305,40.945148 74.154488,43.121319 
	C78.484779,45.234585 80.766525,49.870766 79.984383,54.796982 
	C79.263100,59.339863 76.555489,62.450394 72.211479,63.662636 
	C67.283417,65.037872 63.001667,63.652531 59.630173,59.089554 
z"/>
</svg>